<svg xmlns="http://www.w3.org/2000/svg" width="1440" viewBox="0 0 1440 810" height="810" version="1.0"><defs><clipPath id="a"><path d="M 256.851562 270.816406 L 390.964844 270.816406 L 390.964844 539.300781 L 256.851562 539.300781 Z M 256.851562 270.816406"/></clipPath></defs><path fill="#546DE5" d="M 255.375 230.710938 C 159.070312 230.710938 81 308.78125 81 405.085938 C 81 501.390625 159.070312 579.460938 255.375 579.460938 C 351.679688 579.460938 429.75 501.390625 429.75 405.085938 C 429.75 308.78125 351.679688 230.710938 255.375 230.710938 Z M 255.375 230.710938"/><g fill="#303952"><g><g><path d="M 90.6875 -69.34375 L 90.234375 -69.34375 L 82.515625 -53.890625 L 61.921875 -16.5 L 41.78125 -53.75 L 33.765625 -70.390625 L 33.3125 -70.390625 L 33.3125 0 L 11.65625 0 L 11.65625 -105.671875 L 36.03125 -105.671875 L 61.921875 -56.171875 L 62.21875 -56.171875 L 87.8125 -105.671875 L 112.328125 -105.671875 L 112.328125 0 L 90.6875 0 Z M 90.6875 -69.34375" transform="translate(459.854 460.067)"/></g></g></g><g fill="#303952"><g><g><path d="M 21.65625 -87.953125 C 17.113281 -87.953125 13.804688 -88.988281 11.734375 -91.0625 C 9.660156 -93.132812 8.625 -95.785156 8.625 -99.015625 L 8.625 -102.34375 C 8.625 -105.570312 9.660156 -108.21875 11.734375 -110.28125 C 13.804688 -112.351562 17.113281 -113.390625 21.65625 -113.390625 C 26.195312 -113.390625 29.5 -112.351562 31.5625 -110.28125 C 33.632812 -108.21875 34.671875 -105.570312 34.671875 -102.34375 L 34.671875 -99.015625 C 34.671875 -95.785156 33.632812 -93.132812 31.5625 -91.0625 C 29.5 -88.988281 26.195312 -87.953125 21.65625 -87.953125 Z M 10.453125 -79.484375 L 32.859375 -79.484375 L 32.859375 0 L 10.453125 0 Z M 10.453125 -79.484375" transform="translate(583.84 460.067)"/></g></g></g><g fill="#303952"><g><g><path d="M 10.453125 0 L 10.453125 -79.484375 L 32.859375 -79.484375 L 32.859375 -66 L 33.765625 -66 C 35.171875 -70.144531 37.640625 -73.726562 41.171875 -76.75 C 44.710938 -79.78125 49.609375 -81.296875 55.859375 -81.296875 C 64.035156 -81.296875 70.21875 -78.570312 74.40625 -73.125 C 78.59375 -67.675781 80.6875 -59.90625 80.6875 -49.8125 L 80.6875 0 L 58.28125 0 L 58.28125 -47.984375 C 58.28125 -53.140625 57.472656 -56.953125 55.859375 -59.421875 C 54.242188 -61.890625 51.367188 -63.125 47.234375 -63.125 C 45.421875 -63.125 43.65625 -62.894531 41.9375 -62.4375 C 40.21875 -61.988281 38.675781 -61.257812 37.3125 -60.25 C 35.957031 -59.238281 34.875 -58 34.0625 -56.53125 C 33.257812 -55.070312 32.859375 -53.382812 32.859375 -51.46875 L 32.859375 0 Z M 10.453125 0" transform="translate(627.137 460.067)"/></g></g></g><g fill="#303952"><g><g><path d="M 59.1875 -13.328125 L 58.4375 -13.328125 C 57.832031 -11.203125 56.875 -9.207031 55.5625 -7.34375 C 54.25 -5.476562 52.65625 -3.863281 50.78125 -2.5 C 48.914062 -1.132812 46.796875 -0.078125 44.421875 0.671875 C 42.054688 1.429688 39.613281 1.8125 37.09375 1.8125 C 27 1.8125 19.378906 -1.742188 14.234375 -8.859375 C 9.085938 -15.972656 6.515625 -26.289062 6.515625 -39.8125 C 6.515625 -53.34375 9.085938 -63.640625 14.234375 -70.703125 C 19.378906 -77.765625 27 -81.296875 37.09375 -81.296875 C 42.238281 -81.296875 46.800781 -79.878906 50.78125 -77.046875 C 54.769531 -74.222656 57.320312 -70.59375 58.4375 -66.15625 L 59.1875 -66.15625 L 59.1875 -112.03125 L 81.59375 -112.03125 L 81.59375 0 L 59.1875 0 Z M 44.515625 -16.34375 C 48.753906 -16.34375 52.257812 -17.378906 55.03125 -19.453125 C 57.800781 -21.523438 59.1875 -24.375 59.1875 -28 L 59.1875 -51.46875 C 59.1875 -55.101562 57.800781 -57.953125 55.03125 -60.015625 C 52.257812 -62.085938 48.753906 -63.125 44.515625 -63.125 C 40.273438 -63.125 36.765625 -61.632812 33.984375 -58.65625 C 31.210938 -55.6875 29.828125 -51.675781 29.828125 -46.625 L 29.828125 -32.859375 C 29.828125 -27.804688 31.210938 -23.789062 33.984375 -20.8125 C 36.765625 -17.832031 40.273438 -16.34375 44.515625 -16.34375 Z M 44.515625 -16.34375" transform="translate(717.363 460.067)"/></g></g></g><g fill="#303952"><g><g><path d="M 37.390625 1.8125 C 29.722656 1.8125 23.265625 0.578125 18.015625 -1.890625 C 12.765625 -4.359375 8.070312 -7.863281 3.9375 -12.40625 L 17.109375 -25.734375 C 19.929688 -22.609375 23.054688 -20.132812 26.484375 -18.3125 C 29.921875 -16.5 33.8125 -15.59375 38.15625 -15.59375 C 42.59375 -15.59375 45.664062 -16.273438 47.375 -17.640625 C 49.09375 -19.003906 49.953125 -20.84375 49.953125 -23.15625 C 49.953125 -26.894531 47.28125 -29.117188 41.9375 -29.828125 L 33.3125 -30.890625 C 15.445312 -33.109375 6.515625 -41.28125 6.515625 -55.40625 C 6.515625 -59.238281 7.242188 -62.742188 8.703125 -65.921875 C 10.171875 -69.109375 12.238281 -71.835938 14.90625 -74.109375 C 17.582031 -76.378906 20.8125 -78.144531 24.59375 -79.40625 C 28.382812 -80.664062 32.648438 -81.296875 37.390625 -81.296875 C 41.523438 -81.296875 45.179688 -81.015625 48.359375 -80.453125 C 51.546875 -79.898438 54.375 -79.09375 56.84375 -78.03125 C 59.320312 -76.976562 61.59375 -75.671875 63.65625 -74.109375 C 65.726562 -72.546875 67.773438 -70.800781 69.796875 -68.875 L 56.921875 -55.71875 C 54.398438 -58.238281 51.546875 -60.226562 48.359375 -61.6875 C 45.179688 -63.15625 41.929688 -63.890625 38.609375 -63.890625 C 34.773438 -63.890625 32.046875 -63.28125 30.421875 -62.0625 C 28.804688 -60.851562 28 -59.238281 28 -57.21875 C 28 -55.101562 28.578125 -53.460938 29.734375 -52.296875 C 30.898438 -51.140625 33.097656 -50.3125 36.328125 -49.8125 L 45.265625 -48.59375 C 62.722656 -46.269531 71.453125 -38.296875 71.453125 -24.671875 C 71.453125 -20.835938 70.644531 -17.304688 69.03125 -14.078125 C 67.414062 -10.847656 65.117188 -8.046875 62.140625 -5.671875 C 59.171875 -3.304688 55.585938 -1.46875 51.390625 -0.15625 C 47.203125 1.15625 42.535156 1.8125 37.390625 1.8125 Z M 37.390625 1.8125" transform="translate(809.407 460.067)"/></g></g></g><g fill="#303952"><g><g><path d="M 43.59375 1.8125 C 37.539062 1.8125 32.140625 0.828125 27.390625 -1.140625 C 22.648438 -3.109375 18.640625 -5.882812 15.359375 -9.46875 C 12.085938 -13.050781 9.617188 -17.414062 7.953125 -22.5625 C 6.285156 -27.707031 5.453125 -33.457031 5.453125 -39.8125 C 5.453125 -46.070312 6.257812 -51.75 7.875 -56.84375 C 9.488281 -61.945312 11.882812 -66.3125 15.0625 -69.9375 C 18.238281 -73.570312 22.148438 -76.375 26.796875 -78.34375 C 31.441406 -80.3125 36.738281 -81.296875 42.6875 -81.296875 C 49.25 -81.296875 54.875 -80.1875 59.5625 -77.96875 C 64.257812 -75.75 68.097656 -72.769531 71.078125 -69.03125 C 74.054688 -65.300781 76.222656 -60.988281 77.578125 -56.09375 C 78.941406 -51.195312 79.625 -46.070312 79.625 -40.71875 L 79.625 -34.0625 L 28.609375 -34.0625 L 28.609375 -32.859375 C 28.609375 -27.609375 30.019531 -23.441406 32.84375 -20.359375 C 35.675781 -17.285156 40.117188 -15.75 46.171875 -15.75 C 50.816406 -15.75 54.601562 -16.679688 57.53125 -18.546875 C 60.457031 -20.410156 63.179688 -22.65625 65.703125 -25.28125 L 76.90625 -11.359375 C 73.375 -7.210938 68.753906 -3.976562 63.046875 -1.65625 C 57.347656 0.65625 50.863281 1.8125 43.59375 1.8125 Z M 43.140625 -64.796875 C 38.597656 -64.796875 35.039062 -63.304688 32.46875 -60.328125 C 29.894531 -57.347656 28.609375 -53.382812 28.609375 -48.4375 L 28.609375 -47.234375 L 56.46875 -47.234375 L 56.46875 -48.59375 C 56.46875 -53.4375 55.378906 -57.347656 53.203125 -60.328125 C 51.035156 -63.304688 47.679688 -64.796875 43.140625 -64.796875 Z M 43.140625 -64.796875" transform="translate(885.706 460.067)"/></g></g></g><g fill="#303952"><g><g><path d="M 38.296875 0 C 30.523438 0 24.644531 -1.96875 20.65625 -5.90625 C 16.675781 -9.84375 14.6875 -15.59375 14.6875 -23.15625 L 14.6875 -62.0625 L 3.484375 -62.0625 L 3.484375 -79.484375 L 9.078125 -79.484375 C 12.109375 -79.484375 14.175781 -80.210938 15.28125 -81.671875 C 16.394531 -83.140625 16.953125 -85.234375 16.953125 -87.953125 L 16.953125 -100.984375 L 37.09375 -100.984375 L 37.09375 -79.484375 L 52.828125 -79.484375 L 52.828125 -62.0625 L 37.09375 -62.0625 L 37.09375 -17.40625 L 51.625 -17.40625 L 51.625 0 Z M 38.296875 0" transform="translate(970.785 460.067)"/></g></g></g><g fill="#303952"><g><g><path d="M 54.34375 1.8125 C 47.175781 1.8125 40.71875 0.675781 34.96875 -1.59375 C 29.21875 -3.863281 24.320312 -7.242188 20.28125 -11.734375 C 16.25 -16.222656 13.117188 -21.820312 10.890625 -28.53125 C 8.671875 -35.25 7.5625 -43.097656 7.5625 -52.078125 C 7.5625 -60.960938 8.671875 -68.859375 10.890625 -75.765625 C 13.117188 -82.679688 16.25 -88.484375 20.28125 -93.171875 C 24.320312 -97.867188 29.21875 -101.425781 34.96875 -103.84375 C 40.71875 -106.269531 47.175781 -107.484375 54.34375 -107.484375 C 64.132812 -107.484375 72.207031 -105.488281 78.5625 -101.5 C 84.925781 -97.519531 90.023438 -91.238281 93.859375 -82.65625 L 74.03125 -72.359375 C 72.613281 -76.804688 70.414062 -80.363281 67.4375 -83.03125 C 64.46875 -85.707031 60.101562 -87.046875 54.34375 -87.046875 C 47.582031 -87.046875 42.15625 -84.847656 38.0625 -80.453125 C 33.976562 -76.066406 31.9375 -69.6875 31.9375 -61.3125 L 31.9375 -44.359375 C 31.9375 -35.984375 33.976562 -29.597656 38.0625 -25.203125 C 42.15625 -20.816406 47.582031 -18.625 54.34375 -18.625 C 60 -18.625 64.515625 -20.160156 67.890625 -23.234375 C 71.273438 -26.316406 73.773438 -30.023438 75.390625 -34.359375 L 94.171875 -23.46875 C 90.234375 -15.394531 85.054688 -9.160156 78.640625 -4.765625 C 72.234375 -0.378906 64.132812 1.8125 54.34375 1.8125 Z M 54.34375 1.8125" transform="translate(1064.494 460.067)"/></g></g></g><g fill="#303952"><g><g><path d="M 11.65625 -105.671875 L 62.984375 -105.671875 C 71.765625 -105.671875 78.597656 -103.195312 83.484375 -98.25 C 88.378906 -93.300781 90.828125 -86.742188 90.828125 -78.578125 C 90.828125 -74.535156 90.296875 -71.097656 89.234375 -68.265625 C 88.179688 -65.441406 86.769531 -63.125 85 -61.3125 C 83.238281 -59.5 81.171875 -58.160156 78.796875 -57.296875 C 76.421875 -56.441406 73.875 -55.960938 71.15625 -55.859375 L 71.15625 -54.953125 C 73.675781 -54.953125 76.320312 -54.5 79.09375 -53.59375 C 81.875 -52.6875 84.425781 -51.25 86.75 -49.28125 C 89.070312 -47.3125 91.015625 -44.757812 92.578125 -41.625 C 94.140625 -38.5 94.921875 -34.664062 94.921875 -30.125 C 94.921875 -25.988281 94.238281 -22.078125 92.875 -18.390625 C 91.507812 -14.710938 89.613281 -11.507812 87.1875 -8.78125 C 84.769531 -6.050781 81.894531 -3.90625 78.5625 -2.34375 C 75.238281 -0.78125 71.609375 0 67.671875 0 L 11.65625 0 Z M 34.671875 -19.375 L 61.15625 -19.375 C 64.1875 -19.375 66.582031 -20.207031 68.34375 -21.875 C 70.113281 -23.539062 71 -25.890625 71 -28.921875 L 71 -34.0625 C 71 -37.09375 70.113281 -39.4375 68.34375 -41.09375 C 66.582031 -42.757812 64.1875 -43.59375 61.15625 -43.59375 L 34.671875 -43.59375 Z M 34.671875 -62.375 L 57.53125 -62.375 C 60.550781 -62.375 62.921875 -63.226562 64.640625 -64.9375 C 66.359375 -66.65625 67.21875 -69.03125 67.21875 -72.0625 L 67.21875 -76.609375 C 67.21875 -79.628906 66.359375 -82 64.640625 -83.71875 C 62.921875 -85.4375 60.550781 -86.296875 57.53125 -86.296875 L 34.671875 -86.296875 Z M 34.671875 -62.375" transform="translate(1163.047 460.067)"/></g></g></g><g fill="#303952"><g><g><path d="M 55.71875 -85.234375 L 55.71875 0 L 32.703125 0 L 32.703125 -85.234375 L 4.09375 -85.234375 L 4.09375 -105.671875 L 84.328125 -105.671875 L 84.328125 -85.234375 Z M 55.71875 -85.234375" transform="translate(1264.022 460.067)"/></g></g></g><path fill="#FFF" d="M 253.738281 270.699219 C 179.601562 270.699219 119.496094 330.800781 119.496094 404.941406 C 119.496094 479.082031 179.601562 539.183594 253.738281 539.183594 C 327.878906 539.183594 387.980469 479.082031 387.980469 404.941406 C 387.980469 330.800781 327.878906 270.699219 253.738281 270.699219 Z M 253.738281 270.699219"/><g clip-path="url(#a)"><path fill="#303952" d="M 390.964844 405.0625 C 390.964844 330.921875 330.917969 270.816406 256.851562 270.816406 L 256.851562 539.300781 C 330.917969 539.300781 390.964844 479.199219 390.964844 405.0625 Z M 390.964844 405.0625"/></g></svg>