<?xml version="1.0" standalone="no"?>
<!DOCTYPE svg PUBLIC "-//W3C//DTD SVG 20010904//EN"
 "http://www.w3.org/TR/2001/REC-SVG-20010904/DTD/svg10.dtd">
<svg version="1.0" xmlns="http://www.w3.org/2000/svg"
 width="1920.000000pt" height="1080.000000pt" viewBox="0 0 1920.000000 1080.000000"
 preserveAspectRatio="xMidYMid meet">
<metadata>
Created by potrace 1.16, written by Peter Selinger 2001-2019
</metadata>
<g transform="translate(0.000000,1080.000000) scale(0.100000,-0.100000)"
fill="#000000" stroke="none">
<path d="M521 7389 c-108 -21 -211 -108 -250 -213 l-21 -58 2 -1376 3 -1377
28 -53 c75 -143 225 -215 379 -183 46 10 158 72 580 323 288 171 543 319 566
330 52 23 74 19 151 -26 31 -18 263 -156 516 -306 253 -150 485 -285 515 -299
45 -21 70 -26 135 -26 71 0 89 4 147 33 77 38 130 92 167 171 l26 56 0 1370 0
1370 -23 58 c-30 73 -104 149 -179 185 l-58 27 -1320 2 c-726 0 -1340 -3
-1364 -8z"/>
<path d="M5160 5900 l0 -760 190 0 190 0 0 283 c0 155 5 311 11 347 20 125 69
188 153 197 57 7 100 -17 128 -70 22 -41 23 -51 26 -399 l3 -358 190 0 190 0
-3 423 c-3 412 -4 423 -26 478 -27 68 -88 140 -147 174 -61 36 -175 58 -255
50 -102 -11 -160 -38 -219 -100 -29 -30 -54 -55 -56 -55 -2 0 -1 124 2 275 l6
275 -191 0 -192 0 0 -760z"/>
<path d="M10340 5900 l0 -760 190 0 190 0 0 292 c0 162 5 319 11 353 19 112
70 173 151 182 62 7 100 -15 129 -74 24 -47 24 -54 27 -400 l4 -353 189 0 189
0 0 378 c0 207 -4 403 -10 435 -20 124 -87 223 -184 270 -160 79 -387 45 -471
-70 -33 -46 -61 -58 -51 -20 3 12 9 136 13 275 l6 252 -191 0 -192 0 0 -760z"/>
<path d="M17030 5900 l0 -760 190 0 190 0 0 153 1 152 63 47 64 47 119 -197
119 -197 217 -3 c119 -1 217 0 217 2 0 2 -90 145 -201 316 -110 172 -198 317
-196 323 3 7 41 55 84 107 43 52 127 155 186 228 l108 132 -213 0 -213 -1
-136 -172 c-75 -95 -157 -205 -184 -245 -26 -40 -50 -71 -52 -69 -2 3 1 44 7
93 5 49 10 250 10 447 l0 357 -190 0 -190 0 0 -760z"/>
<path d="M3900 6415 l0 -155 173 -2 172 -3 3 -557 2 -558 190 0 190 0 0 560 0
560 175 0 175 0 0 155 0 155 -540 0 -540 0 0 -155z"/>
<path d="M13150 5856 l0 -716 303 0 c403 0 499 16 627 101 110 74 161 175 161
319 0 157 -52 244 -183 305 l-69 32 45 17 c53 20 117 80 145 134 30 59 45 159
33 223 -22 118 -63 174 -164 223 -125 62 -172 68 -555 73 l-343 5 0 -716z
m576 413 c83 -21 119 -103 79 -179 -24 -47 -67 -63 -177 -68 l-98 -4 0 131 0
131 76 0 c41 0 95 -5 120 -11z m54 -554 c48 -28 72 -78 67 -138 -9 -102 -64
-137 -214 -137 l-103 0 0 151 0 151 108 -3 c85 -3 114 -8 142 -24z"/>
<path d="M11849 6423 c-11 -27 -34 -79 -50 -118 -28 -66 -34 -73 -114 -129
l-85 -59 0 -78 0 -79 64 0 63 0 6 -282 c5 -316 16 -376 78 -451 87 -106 312
-137 520 -71 l79 25 0 141 c0 129 -1 140 -17 133 -10 -3 -47 -13 -83 -22 -84
-19 -138 -12 -167 22 -22 26 -23 32 -23 266 l0 239 135 0 135 0 0 145 0 145
-135 0 -135 0 0 110 0 110 -125 0 -126 0 -20 -47z"/>
<path d="M6905 6260 c-225 -31 -373 -164 -430 -385 -20 -80 -20 -269 1 -354
47 -189 173 -321 359 -377 44 -14 92 -18 180 -18 104 0 131 4 199 28 168 57
274 172 322 346 27 100 26 303 -3 395 -57 180 -173 296 -351 348 -66 20 -199
28 -277 17z m194 -305 c51 -44 66 -101 66 -260 0 -159 -15 -216 -66 -259 -67
-57 -174 -37 -216 39 -55 100 -56 331 -2 437 25 49 61 67 131 68 46 0 62 -5
87 -25z"/>
<path d="M9455 6260 c-234 -32 -360 -164 -359 -375 1 -115 23 -175 93 -246 31
-31 63 -59 71 -62 12 -5 12 -8 -4 -18 -71 -45 -126 -118 -126 -171 0 -39 42
-109 83 -139 34 -25 37 -30 21 -35 -164 -57 -219 -121 -218 -254 0 -56 5 -85
22 -116 67 -130 249 -192 522 -180 346 15 546 133 590 350 29 140 -26 283
-130 336 -68 35 -117 42 -320 49 -244 9 -284 21 -262 81 7 19 18 21 137 25
138 4 204 18 290 60 131 64 206 226 174 372 -7 32 -13 62 -14 66 0 5 32 21 70
36 l70 26 3 91 3 91 -273 7 c-150 4 -298 8 -328 10 -30 3 -82 1 -115 -4z m165
-215 c47 -24 64 -68 64 -160 0 -97 -19 -140 -71 -161 -30 -13 -41 -13 -76 -2
-61 19 -82 61 -82 163 0 94 19 139 68 160 42 18 62 18 97 0z m150 -959 c49
-18 68 -53 49 -91 -28 -59 -132 -95 -274 -95 -112 0 -157 12 -189 51 -43 51
-29 99 39 134 39 19 321 20 375 1z"/>
<path d="M14875 6260 c-225 -31 -373 -164 -430 -385 -20 -80 -20 -269 1 -354
47 -189 173 -321 359 -377 44 -14 92 -18 180 -18 104 0 131 4 199 28 168 57
274 172 322 346 27 100 26 303 -3 395 -57 180 -173 296 -351 348 -66 20 -199
28 -277 17z m194 -305 c51 -44 66 -101 66 -260 0 -159 -15 -216 -66 -259 -67
-57 -174 -37 -216 39 -55 100 -56 331 -2 437 25 49 61 67 131 68 46 0 62 -5
87 -25z"/>
<path d="M16145 6260 c-220 -35 -366 -167 -421 -380 -23 -88 -23 -273 -1 -360
55 -211 201 -349 405 -386 98 -17 157 -17 257 1 206 37 346 169 402 377 23 85
23 271 0 358 -50 190 -174 320 -355 374 -68 20 -210 28 -287 16z m191 -299
c60 -37 89 -147 81 -306 -9 -161 -47 -233 -131 -249 -126 -24 -196 80 -196
289 0 142 32 239 89 270 38 21 120 19 157 -4z"/>
<path d="M7780 5855 c0 -416 4 -463 47 -548 49 -98 133 -156 258 -178 143 -25
275 11 368 99 33 32 61 52 66 46 4 -5 18 -37 31 -71 l22 -63 144 0 144 0 0
555 0 555 -190 0 -190 0 0 -263 c0 -407 -18 -498 -110 -545 -53 -27 -119 -25
-151 4 -53 48 -54 53 -57 442 l-3 362 -190 0 -189 0 0 -395z"/>
</g>
</svg>
